<?xml version="1.0" encoding="UTF-8"?>
<svg id="Layer_2" data-name="Layer 2" xmlns="http://www.w3.org/2000/svg" viewBox="0 0 5463.16 1951.87">
  <defs>
    <style>
      .cls-1, .cls-2 {
        fill: #fff;
      }

      .cls-3 {
        fill: #ff7a00;
      }

      .cls-2 {
        fill-rule: evenodd;
      }

      .cls-4 {
        fill: #333231;
      }
    </style>
  </defs>
  <g id="Camada_1" data-name="Camada 1">
    <g>
      <ellipse class="cls-3" cx="2731.58" cy="975.94" rx="2731.58" ry="975.94"/>
      <path class="cls-2" d="M915.23,1137.25c-22.59,0-43.69-3.74-63.28-11.22-19.59-7.48-36.65-17.76-51.17-30.85-14.52-13.08-26.05-28.25-34.57-45.49-8.53-17.24-12.8-35.83-12.8-55.77s4.26-37.28,12.8-54.53c8.53-17.24,20.05-32.3,34.57-45.17,14.52-12.88,31.58-23.06,51.17-30.53,19.59-7.48,40.69-11.22,63.28-11.22s42.87,3.74,62.24,11.22c19.37,7.47,36.31,17.66,50.83,30.53,14.52,12.88,26.05,27.94,34.57,45.17,8.53,17.24,12.8,35.42,12.8,54.53,0,14.96-2.42,29.08-7.26,42.38-4.84,13.29-11.41,25.75-19.71,37.39l-82.29,110.29-92.67,125.25h-80.22l123.79-168.87h.7l2.07-3.12h-4.84Zm-1.38-226.2c-11.99,0-23.17,2.18-33.54,6.54-10.37,4.36-19.48,10.28-27.31,17.76-7.84,7.47-14.06,16.3-18.68,26.48-4.61,10.18-6.91,21.08-6.91,32.71s2.3,23.16,6.91,33.34c4.61,10.18,10.83,19.01,18.68,26.48,7.84,7.48,16.94,13.4,27.31,17.76,10.38,4.36,21.56,6.54,33.54,6.54s23.28-2.18,33.88-6.54c10.61-4.36,19.94-10.28,28.01-17.76,8.06-7.47,14.41-16.3,19.02-26.48,4.61-10.18,6.92-21.29,6.92-33.34s-2.31-22.54-6.92-32.71c-4.61-10.18-10.95-19.01-19.02-26.48-8.07-7.48-17.4-13.4-28.01-17.76-10.61-4.36-21.9-6.54-33.88-6.54Z"/>
      <path class="cls-1" d="M491.65,1101.95c12.57,0,24.09-2.41,34.56-7.23,10.47-4.82,19.52-11.18,27.14-19.1,7.62-7.92,13.72-16.96,18.28-27.11,4.57-10.16,6.86-20.74,6.86-31.75s-2.28-21.17-6.86-31.5c-4.57-10.33-10.66-19.36-18.28-27.11-7.62-7.74-16.66-14.03-27.14-18.84-10.47-4.82-21.99-7.23-34.56-7.23h-143.4v-48.39h135.97c17.14,0,33.23,1.97,48.28,5.92,15.05,3.95,28.85,9.35,41.42,16.22,30.85,17.5,51.61,42.04,62.27,73.62,.38,1.72,.76,3.26,1.14,4.63,.38,1.37,.95,2.92,1.71,4.64v2.57c.76,1.71,1.24,3.6,1.43,5.66,.19,2.06,.47,4.12,.86,6.17,.38,2.58,.57,4.64,.57,6.69v14.42c0,2.06-.19,4.12-.57,6.18v1.03c-.38,2.06-.67,4.03-.86,5.92-.19,1.89-.67,3.86-1.43,5.92v2.06c-1.52,3.78-2.47,7.04-2.85,9.78-5.33,15.44-13.23,29.34-23.71,41.7-10.47,12.36-23.32,22.82-38.56,31.4-.76,.69-1.71,1.2-2.85,1.54-1.14,.35-2.09,.86-2.85,1.55l73.7,130.76h-64.56l-64.56-113.77c-4.57,.69-9.14,1.2-13.72,1.54-4.57,.35-9.52,.52-14.85,.52h-74.84v111.71h-61.13v-162.01l61.13,1.91h82.27Z"/>
      <path class="cls-1" d="M3842.06,1098.94c12.57,0,24.09-2.41,34.56-7.23,10.47-4.82,19.52-11.18,27.14-19.1,7.62-7.92,13.72-16.96,18.28-27.11,4.57-10.16,6.86-20.74,6.86-31.75s-2.28-21.17-6.86-31.5c-4.57-10.33-10.66-19.36-18.28-27.11-7.62-7.74-16.66-14.03-27.14-18.84-10.47-4.82-21.99-7.23-34.56-7.23h-143.4v-48.39h135.97c17.14,0,33.23,1.97,48.28,5.92,15.05,3.95,28.85,9.35,41.42,16.22,30.85,17.5,51.61,42.04,62.27,73.62,.38,1.72,.76,3.26,1.14,4.63,.38,1.37,.95,2.92,1.71,4.64v2.57c.76,1.71,1.24,3.6,1.43,5.66,.19,2.06,.47,4.12,.86,6.17,.38,2.58,.57,4.64,.57,6.69v14.42c0,2.06-.19,4.12-.57,6.18v1.03c-.38,2.06-.67,4.03-.86,5.92-.19,1.89-.67,3.86-1.43,5.92v2.06c-1.52,3.78-2.47,7.04-2.85,9.78-5.33,15.44-13.23,29.34-23.71,41.7-10.47,12.36-23.32,22.82-38.56,31.4-.76,.69-1.71,1.2-2.85,1.54-1.14,.35-2.09,.86-2.85,1.55l73.7,130.76h-64.56l-64.56-113.77c-4.57,.69-9.14,1.2-13.72,1.54-4.57,.35-9.52,.52-14.85,.52h-74.84v111.71h-61.13v-162.01l61.13,1.91h82.27Z"/>
      <polygon class="cls-1" points="2173.38 1008.66 2034.88 1259.88 1968.14 1259.88 2173.38 882.53 2378.62 1259.88 2339.13 1259.88 2311.87 1259.88 2173.38 1259.88 2173.38 1201.36 2279.61 1201.36 2173.38 1008.66"/>
      <path class="cls-1" d="M3388.97,1203.44h217.66v53.02h-286.28v-220.19h68.62v167.16Zm-68.62-322.78h286.28v53.02h-286.28v-53.02Zm139.25,155.62h147.03v53.02h-147.03v-53.02Z"/>
      <path class="cls-1" d="M2933.96,1172.26v-291.6h61.13v291.6h-61.13Zm299.93-290.57l-118.84,144.66,131.4,232.18h-64.56l-105.12-185.84-28.03-47.79,115.44-143.2h69.7Z"/>
      <g>
        <path class="cls-1" d="M1913.15,1001.45c-.38-2.06-.67-4.12-.86-6.17-.19-2.06-.67-3.95-1.43-5.66v-2.57c-.76-1.72-1.33-3.26-1.71-4.64-.38-1.37-.76-2.91-1.14-4.63-10.66-31.57-31.42-56.11-62.27-73.62-12.57-6.86-26.37-12.27-41.42-16.22-15.04-3.95-31.13-5.92-48.27-5.92-85.6,0-170.98-4.11-256.51-4.11-35.42,0-70.85,0-106.27,0v376.87h60.56v-323.84h183.71v-.53h125.93c12.57,0,24.09,2.41,34.56,7.23,10.48,4.82,19.52,11.1,27.14,18.84,7.62,7.75,13.72,16.79,18.28,27.11,4.57,10.33,6.86,20.83,6.86,31.5s-2.28,21.6-6.86,31.75c-4.57,10.16-10.66,19.19-18.28,27.11-7.62,7.92-16.66,14.29-27.14,19.1-10.47,4.82-21.99,7.23-34.56,7.23h-82.27l-61.13-1.91v162.01h61.13v-111.71h74.84c5.33,0,10.29-.17,14.85-.52,4.58-.35,9.14-.86,13.72-1.54l64.56,113.77h64.56l-73.7-130.76c.76-.69,1.71-1.2,2.85-1.55,1.14-.34,2.1-.86,2.86-1.54,15.24-8.58,28.09-19.05,38.56-31.4,10.48-12.36,18.38-26.26,23.71-41.7,.38-2.75,1.34-6.01,2.85-9.78v-2.06c.76-2.06,1.24-4.03,1.43-5.92,.19-1.89,.47-3.86,.86-5.92v-1.03c.38-2.06,.57-4.12,.57-6.18v-14.42c0-2.06-.19-4.12-.57-6.69Z"/>
        <rect class="cls-1" x="1187.18" y="877.9" width="140.32" height="53.03"/>
      </g>
      <g>
        <path class="cls-1" d="M4128.6,564.15c384.49-85.03,628.85,16.02,628.85,16.02l262.82-87.73c.02-.94,.06-1.89,.07-2.82-17.17-6.58-356.73-104.8-891.74,74.54Z"/>
        <path class="cls-4" d="M4128.6,564.15c-153.61,51.49-323.33,125.85-506.16,231.85,273.26-75.4,505.88-113.24,792.64-101.54l342.37-114.29s-244.36-101.05-628.85-16.02Z"/>
        <path class="cls-1" d="M3995.59,1609.41c768.6-373.2,1019.27-913.84,1024.68-1116.97l-262.82,87.73s49.97,461.26-761.86,1029.24Z"/>
        <path class="cls-4" d="M4757.45,580.17l-342.37,114.29c-.21,276.93-154.78,571.71-681.32,1027.25,93.3-35.16,180.46-72.8,261.82-112.31,811.83-567.98,761.86-1029.24,761.86-1029.24Z"/>
      </g>
      <polygon class="cls-4" points="3946.44 1434.39 348.24 1418.18 3946.44 1401.96 3946.44 1434.39 3946.44 1434.39"/>
      <path class="cls-1" d="M2827.26,1142.95c-2.87,6.49-6.15,12.84-9.83,19.05-11.91,20.07-26.84,37.44-44.8,52.11-17.96,14.66-38.47,26.18-61.53,34.56-23.06,8.38-47.64,12.57-73.73,12.57-28.36,0-55.11-5.06-80.25-15.19-25.14-10.12-46.98-23.83-65.51-41.11-18.53-17.28-33.18-37.53-43.95-60.75-10.78-23.22-16.16-48.09-16.16-74.62s5.39-51.41,16.16-74.62c10.78-23.22,25.43-43.46,43.95-60.74,18.53-17.28,40.36-30.98,65.51-41.11,25.14-10.12,51.89-15.19,80.25-15.19,21.55,0,42.06,2.88,61.53,8.64,19.47,5.76,37.34,13.88,53.59,24.35,16.26,10.47,30.72,22.95,43.39,37.44,12.67,14.49,22.97,30.28,30.91,47.39h-69.76c-12.48-19.55-29.21-35.26-50.19-47.13-20.98-11.87-44.14-17.8-69.47-17.8-19.66,0-38.19,3.67-55.58,11-17.39,7.33-32.52,17.28-45.37,29.85-12.86,12.57-23.06,27.23-30.63,43.99-7.56,16.76-11.34,34.74-11.34,53.94s3.78,37.18,11.34,53.94c7.56,16.76,17.77,31.42,30.63,43.99,12.85,12.57,27.98,22.52,45.37,29.85,17.39,7.33,35.92,11,55.58,11,17.01,0,33.27-2.79,48.77-8.38,15.5-5.59,29.4-13.35,41.69-23.3,11.79-9.55,21.84-20.78,30.15-33.71h69.28Z"/>
    </g>
  </g>
</svg>