<?xml version="1.0" encoding="UTF-8"?>
<svg id="Layer_2" data-name="Layer 2" xmlns="http://www.w3.org/2000/svg" xmlns:xlink="http://www.w3.org/1999/xlink" viewBox="0 0 421.12 242.31">
  <defs>
    <style>
      .cls-1 {
        fill: #fff;
      }

      .cls-2 {
        fill: #f5aa74;
        stroke: #a76432;
        stroke-miterlimit: 10;
      }

      .cls-3 {
        filter: url(#drop-shadow-1);
      }

      .cls-4 {
        filter: url(#drop-shadow-2);
      }

      .cls-5 {
        fill: none;
      }

      .cls-6 {
        fill: #f3ac78;
      }

      .cls-7 {
        fill: #545454;
      }

      .cls-8 {
        fill: #a76432;
      }
    </style>
    <filter id="drop-shadow-1" filterUnits="userSpaceOnUse">
      <feOffset dx="2" dy="1"/>
      <feGaussianBlur result="blur" stdDeviation="0"/>
      <feFlood flood-color="#878787" flood-opacity=".5"/>
      <feComposite in2="blur" operator="in"/>
      <feComposite in="SourceGraphic"/>
    </filter>
    <filter id="drop-shadow-2" filterUnits="userSpaceOnUse">
      <feOffset dx="2" dy="1"/>
      <feGaussianBlur result="blur-2" stdDeviation="0"/>
      <feFlood flood-color="#878787" flood-opacity=".5"/>
      <feComposite in2="blur-2" operator="in"/>
      <feComposite in="SourceGraphic"/>
    </filter>
  </defs>
  <g id="Layer_1-2" data-name="Layer 1">
    <g>
      <g class="cls-3">
        <path class="cls-1" d="M144.47,57.5c-1.14-1.61-2.27-3.31-3.43-5.07-3.48,2.63-7.25,5.69-10.52,8.5,1.05,5.66,2.78,11.86,5.34,18.56,.69,1.91-10.02,5.32-11.48,3.84-1.8-3.7-3.26-9.25-4.39-15.52-2.28-.86-4.89-3.21-4.34-4.22,.4-.75,1.67-2.16,3.33-3.83-1.28-14.4,0-30.48,5.83-38.9,2.35-2.61,8.37-3.25,10.31-2.9,6.55,17.19,19.53,35.35,24.97,41.37,1.27,2.17-9.54,4.92-11.22,4.24-2-.8-4.15-3.69-5.09-5.36l.68-.7Zm-15.38-6.87c1-.83,1.99-1.56,2.74-2.14,1.49-1.07,3.69-2.93,4.97-3.45-2.19-4.18-4.25-8.77-6.28-13.94l-.43,.21c-1.02,4.75-1.67,11.29-1,19.33Z"/>
        <path class="cls-1" d="M162.1,42.37c-2.04,.25-3.84,.37-4.8,.2-4.56-.77-4.35-6.38-2.27-7.84,.68-.11,2.7,.91,6.9,.86-.18-8.18-.09-15.09,.27-16.94,.29-2.11,.67-3.34,3.43-4.06,1.78-.47,6.29-.67,7.71,.44-.42,3.77-.32,10.84,0,18.21,6.42-2.88,10.06-8.83,8.33-15.4-1.6-6.12-7.6-8.06-17.01-5.59-7.43,1.95-10.4,6.17-11.75,9.06,0,0-.37,.45-1.07,.49-1.86,.14-5.14-2.45-5.83-4.52,0,0,2.97-7.46,20.2-11.98,13.22-3.47,24.98-1.28,27.27,7.47,2.57,9.8-4.97,21.27-19.88,26.87l.5,9.43c-.08,1.29,2.12-.49,1.7,1.66-.43,2.36-.13,6.22-.9,7.83-.27,.56-.52,.98-1.44,1.22-2.1,.55-9.83,.05-10.48-.27-.39-4.96-.72-11.06-.91-17.13Z"/>
        <path class="cls-1" d="M205.02,33.7c-2.01-.46-3.73-.97-4.58-1.45-4.02-2.29-1.89-7.49,.56-8.14,.67,.13,2.22,1.78,6.19,3.18,2.64-7.74,5.09-14.21,6.06-15.82,1-1.89,1.78-2.91,4.62-2.64,1.83,.17,6.14,1.53,7.09,3.06-1.69,3.39-4.02,10.07-6.25,17.1,7.01-.5,12.48-4.84,13.11-11.61,.59-6.3-4.37-10.18-14.05-11.09-7.65-.72-11.89,2.23-14.15,4.48,0,0-.51,.29-1.17,.09-1.8-.51-3.99-4.06-3.92-6.24,0,0,5.34-5.99,23.08-4.32,13.61,1.28,23.9,7.37,23.05,16.37-.95,10.09-11.96,18.27-27.89,18.42l-2.76,9.03c-.52,1.18,2.16,.27,1.03,2.15-1.22,2.07-2.25,5.8-3.53,7.04-.45,.44-.82,.74-1.77,.65-2.17-.2-9.25-3.33-9.75-3.85,1.34-4.79,3.12-10.64,5.02-16.4Z"/>
      </g>
      <g class="cls-4">
        <path class="cls-1" d="M73.59,207.03c-2.4,.68-5.14,1.38-8.27,2.18-2.24,.55-5.75-5.26-4.31-5.79,9.36-3.43,20.13-5.27,24.99-5.94,3.22-.46,5.67-.57,7.44,.58,.37,.25,2.09,2.79,2.13,3.24,.04,.4-2.72,2.14-3.71,2.57-1.59,.72-2.17-.55-3.48-.48-1.64,.26-3.21,.58-4.78,.95-1.52,7.18-3.13,19.75-3.7,26.61,4.41-1.2,7.89-1.98,10.68-2.12,1.2-.05,6.08,6.49,3.47,6.72-7.6,.81-16.25,2.57-30.35,6.2-2.13,.54-5.36-4.15-3.93-4.85,1.92-.97,3.43-2.6,4.66-2.26,.82,.21,1.03,.59,1.25,.52,2.34-.67,4.51-1.38,6.58-1.97-1.29-.28-2.3-.71-2.41-1.27,.71-8.54,2.37-18.65,3.75-24.9Z"/>
        <path class="cls-1" d="M115.91,220.47c2.51-13.28,5.17-28.75,7.38-28.95,4.54-.41,8.77,.17,9.27,1.22-5.86,16.16-8.27,32.35-9.02,43.64-.12,.53-1.37,.64-2.05,.7-2.27,.21-7.03-.56-8.09-2.07-2.97-6.83-6.36-19.57-8.01-24.46l-.59-.23c-1.2,4.46-2.4,13.21-2.07,21.88,.02,.8,.38,.42,1.28,.86,1.25,.52-1.46,7.8-1.61,8.73-.25,1.68-9.21-1.22-9.95-1.73,.31-14.8,3.33-38.26,7.96-44.57,2.23,.03,6.83,.87,8.36,1.87,1.29,6.58,4.62,19.33,6.46,23.17l.68-.06Z"/>
        <path class="cls-1" d="M142.3,231.18c4.43-.4,7.29-3.53,6.81-8.86-.86-9.42-11.14-12.95-16.86-13.52-1.04-.13-2.94-6.49-2.98-6.94-.51-3.67,20.73-9.96,29.29-10.22,1.54-.03,3.91,4.57,3.97,5.25,.25,2.73-5,7.38-7.15,7.58-.57,.05-1.7-.42-1.73-.82-.05-.51,.45-1.93,.4-2.55-.08-.91-8.61,1.64-12.45,4.11,3.7,.98,18.78,5.67,19.92,18.28,.71,7.83-6.5,12.21-15.13,13-11.3,1.03-18.42-4.96-18.94-10.58-.34-3.75,1.49-7.52,4.84-7.83,3.58-.33,7.01,1.59,7.47,2.81-.97,1.29-2.02,4.25-1.79,6.69,.19,2.1,1.78,3.84,4.33,3.61Z"/>
        <path class="cls-1" d="M161.61,196.22c4.48-1.67,10.04-2.92,15.1-3.89,.33-1.4,.73-2.64,1.15-3.77,1.54-1.97,7.52,.86,8.85,1.6l-.12,.58,2.88-.43c3.22-.46,5.9-.54,6.64-.03,.37,.25,3.6,3.68,3.69,4.7,.08,.91-.55,1.48-1.74,1.59-3.34,.36-7.91,1.12-12.86,2.14-1.35,8.42-1.97,16.09-2.66,26.12,.47,.19,1.2,0,1.41,.44,.62,1.2-2.33,7.77-2.33,7.77-.65,1.66-9.77-.43-10.45-.94,.67-8.42,1.93-20.95,3.7-31.08-2.91,.78-5.75,1.55-8.37,2.36-2.17,.66-6.33-6.64-4.89-7.17Z"/>
        <path class="cls-1" d="M211.53,220.18c-.21-1.64-.36-3.34-.52-5.1-3.61,.56-7.61,1.32-11.14,2.1-1.47,4.6-2.65,9.86-3.43,15.82-.25,1.68-9.51-.05-10-1.72,.14-3.45,1.26-8.13,2.92-13.2-1.34-1.54-2.34-4.31-1.53-4.84,.59-.4,2.09-.93,3.98-1.51,4.77-11.14,12.09-22.51,19.75-26.41,2.77-1,7.47,.92,8.76,1.95-1.99,15.29,.39,33.85,2.02,40.46,.08,2.11-9-.15-9.97-1.33-1.16-1.38-1.6-4.38-1.63-5.98l.78-.24Zm-8.63-11.18c1.07-.21,2.08-.36,2.87-.49,1.53-.2,3.89-.7,5.04-.57,.04-3.95,.35-8.16,.9-12.79l-.4-.02c-2.64,3.1-5.71,7.68-8.41,13.87Z"/>
        <path class="cls-1" d="M224.4,222.62c.95-10.96,3.19-30.97,5.52-38.05,1.85-1.08,8.93,.62,10.31,1.35-1.92,7.16-4.66,22.35-5.7,33.61,6.86-1.94,11.93-2.92,15.69-3.09,1.14-.05,6.81,6.31,4.2,6.54-5.72,.64-11.82,1.59-20.33,3.63-.02,1.03-.05,2.01,.03,2.86,0,1.37-6.46,.13-9.05-.67l-.5,.16c-2.24,.55-6.23-4.3-4.79-4.77l4.61-1.56Z"/>
        <path class="cls-1" d="M270.34,214.83c-.21-1.64-.36-3.34-.52-5.1-3.61,.56-7.61,1.32-11.14,2.1-1.47,4.6-2.65,9.86-3.43,15.82-.25,1.68-9.51-.05-10-1.72,.14-3.45,1.26-8.13,2.92-13.2-1.34-1.54-2.34-4.31-1.53-4.84,.59-.4,2.09-.93,3.98-1.51,4.77-11.14,12.09-22.51,19.75-26.41,2.77-1,7.47,.92,8.76,1.95-1.99,15.29,.39,33.85,2.02,40.46,.08,2.11-9-.15-9.97-1.33-1.16-1.38-1.6-4.38-1.63-5.98l.78-.24Zm-8.63-11.18c1.07-.21,2.08-.36,2.87-.49,1.53-.2,3.89-.7,5.04-.57,.04-3.95,.34-8.16,.9-12.79l-.4-.02c-2.64,3.1-5.71,7.68-8.41,13.87Z"/>
        <path class="cls-1" d="M299.1,219.59c8.18-.74,15.16-11.46,13.95-24.74-.46-5-2.99-8.31-6.6-9.65-1.53,9.58-3.19,24.1-3.54,28.43-.27,2.08-1.18,2.8-2.59,2.93-3.58,.33-7.22-1.29-7.65-1.65,.69-8.76,2.88-21.79,4.54-29.38-4.58,1.85-6.33,5.9-6.82,9.32,0,.06-.05,.06-.28,.08-.62,.06-6.81,0-7.38-1.79,0,0,.69-11.91,15.94-13.59,.15-.87,.54-2.28,2.47-2.46,2.72-.25,5.83,.56,6.74,1.1l-.43,1.58c9.19,1.62,15.48,7.81,16.31,16.89,1.49,16.35-9.16,26.99-21.77,28.14-12.21,1.11-22.61-4.98-23.61-11.02,.87-1.8,5.07-4.64,6.82-3.71,1.32,.68,4.65,2.61,4.85,3.62,.1,.5-.55,.91-.34,1.29,1.19,2.41,4.41,5.04,9.4,4.58Z"/>
        <path class="cls-1" d="M337.51,175.05c1.5,.15,1.83,.58,2.57,1.14,0,0,2.18-1.17,4.68-1.4,11.41-1.04,14.91,5.28,15.58,12.72,.69,7.55-1.25,29.02-17.89,30.54-12.09,1.1-17.65-8.41-18.42-16.81-1.1-12.04,5.94-24.01,13.47-26.18Zm2.71,36.67c7.15-.65,8.18-21.41,8.09-25.58-.1-3.02-.95-6.04-3.11-5.84-3.75,.34-4.8,6.33-5.43,10.11-.13,.47-.27,.77-.75,.58-.35-.03-1.65-.54-2.02-.85,.06,0-1.86,4.75-1.67,11.89,.17,5.65,1.82,9.97,4.89,9.69Z"/>
        <path class="cls-1" d="M367.77,179.23c-2.49,.91-4.19,2.44-5.02,3.95,0,0-.48,.96-1.17,1.02-1.53,.14-3.83-2.46-4.01-3.76,0,0,1.64-4.67,11.18-6.68,.07-.46,.15-.87,.24-1.11,.46-1.87,1.24-2.75,3.57-2.96,1.59-.15,5.36,.43,6.48,1.36l-.46,1.82c10.44,.25,18.08,4.31,18.67,10.72,.51,5.62-4.94,10.52-12.58,13.4,2.63,1.82,5.52,4.02,8,6.08l.72-.29c2.16-.83,5.09,3.72,5.58,4.7,.41,.76,.51,1.21,.17,1.87-.48,1.02-5.13,5.28-6.54,5.52-4.65-3.3-12.74-10.46-18.06-14.15l-.87,7.41c-.08,1.04,.71,.91,.53,2.64-.22,1.97-1.05,5.42-2.41,5.54-1.82,.17-8.44-.95-8.93-1.31,.7-8.71,3.29-26.12,4.93-35.77Zm7.65,14.24c7.4-1.07,11.04-3.87,10.65-8.18-.33-3.63-3.86-5.95-8.51-6.72-.69,4.36-1.46,9.75-2.13,14.91Z"/>
      </g>
      <path class="cls-2" d="M342,114.74c-1.73-5.59-6.79-11.54-13-13-1.8-.42-2.95-.29-7,0-2.91,.21-7.06,2.29-10.5,2.5-.5,1.88-.53,1.97-1.07,3.84,.05,.67-.13,1.36-.55,1.86-.35,1.11-.73,2.21-1.15,3.29,.01,.01,.03,.02,.04,.03,.82,.77,.91,2.08,.39,3.03-1.1,2.01-2.77,3.6-4.54,5.09-.99,1.93-1.83,3.92-2.12,6.08,.57,.95,.3,2.19-.39,3.04-1.67,2.05-4.09,3.52-6.45,4.64-2.16,1.03-4.42,1.87-6.74,2.46,.03,.04,.06,.09,.09,.13,7.24,9.5,18.6,10.85,20,11,3.26,.34,8.46,.27,14-2,12.47-5.11,22.73-19.99,19-32Z"/>
      <g id="chave">
        <path class="cls-7" d="M421,128.74v3c0,.48-.02,.94-.05,1.38,.01,.02,.01,.04,0,.05-.11,1.36-.33,2.56-.46,3.92-.66,6.82-5.3,17.97-18.87,27.59-11.73,8.31-23.95,8.91-32.88,9.35-2.76,.13-5.62,.27-8.4,.27-6.6,0-14.34-.67-21.77-5.67-10.27-6.9-15.42-16.31-15.63-16.7l-.17-.31c-.82-1.55-2.76-5.19-6.23-8.86-2.35-2.49-4.15-3.65-6.21-4.02-.47-.08-.95-.12-1.43-.12s-.98,.04-1.48,.12l-.11,.02-34.53,3.3-1.01,.1-77.14,7.38-70.34,8.45-1.08,.13-1.79,.21c-1.6,.35-3.23,.68-4.87,.97-1.29,.23-2.17,.37-2.81,.46-1.13,.18-1.15,.19-1.37,.29-.14,.07-1.44,.75-3.55,4.62-1.2,2.19-1.82,3.88-2.53,5.84l-.23,.62c-.05,.14-1.37,3.71-3.96,9.91-3.5,8.35-10.11,13.77-12.59,15.82-7.87,6.45-15.55,8.35-23.68,10.37-4.28,1.06-10.15,2.51-17.33,2.51-2.41,0-4.85-.17-7.27-.5-4.63-.63-10.39-2.41-16.78-6.29-8.14-4.93-12.4-11.91-14.69-15.66-1.61-2.63-3-5.42-4.14-8.28l-1.69-4.23h.09l4.46,.21c3.02,.14,6.09,1.21,9.13,1.21s6.15-.07,9.2-.21c12.48-.57,22.04-2.15,28.42-4.69,6.87-2.74,11.18-4.73,13.06-9.18,1.1-2.6,1.07-5.31,.77-7.33h0c-.26-1.72-.7-2.95-.8-3.21-1.42-3.71-4.01-5.81-4.98-6.6-2.59-2.09-5.15-2.87-6.84-3.38-2.34-.72-4.79-1.08-7.29-1.08-1.07,0-2.16,.07-3.25,.2l-.24,.03h-.25c-1.25-.07-2.51-.1-3.77-.1s-2.53,.03-3.79,.09c-5.34,.25-9.13,.96-13.15,1.7l-1.14,.21c-5.99,1.11-12.3,2.1-18.74,2.96l-4.82,.13v-3c.13-2.21,0-3,0-5,0-.74,.08-1.55,.25-2.44,0-.05,.01-.09,.02-.14,1.26-6.55,6.96-16.5,17.32-22.46,8.18-4.7,18.53-3.32,29.67-4.25,1.93-.16,4.85-.41,8.33-.41,2.65,0,5.23,.14,7.88,.41,6.89,.72,14.69,1.54,22.73,6.27,5.77,3.4,6.96,6.28,9.56,9.52l.14,.18c.71,.89,4.18,1.74,6.68,2.89,0,0,1.12,.51,2.32,.77h0s.2,.02,.57,.02c1.59,0,4.47-.23,8.29-.64,.33-.03,.66-.07,1-.1,25.7-2.82,89.43-12.7,97.72-13.99l.13-.02,45.86-3.28,1.18-.08,49.23-3.52,.22,.02c.07,.01,.16,.01,.26,.01,.08,0,.17,0,.26-.01,3.33-.26,9.22-2.89,10.17-4.74l.25-.48c5.39-10.29,17.07-16.06,24.8-19.87,11.63-5.75,19.27-8.97,29.56-9.18,1.73-.04,3.38-.07,4.97-.07,7.46,0,17.72,.75,24.05,4.37,2.17,1.25,8.44,5.31,12.57,13.22,.9,1.72,.95,3.27,1.49,5.16l.51,2.84c-5.27,.62-10.54,1.25-15.81,1.87-2.83,.28-20.7,2.08-33.7,5.76-2.09,.59-7.12,2.03-11.59,6.2-1.64,1.52-3.33,3.09-4.1,5.57-.02,.05-.03,.11-.04,.16-1.39,4.81,1.64,9.53,2.65,11.09,1.59,2.47,4.64,5.8,10.18,7.6,1.94,.63,3.78,.87,6.78,.87,.63,0,1.3-.01,2.02-.03,9.16-.25,16.17-1.67,28.88-4.25l2.93-.59c4.38-.88,7.88-1.58,9.8-1.96l5-1.29Z"/>
        <path class="cls-1" d="M421,132.74c-.01,.13-.03,.26-.05,.38,.01,.02,.01,.04,0,.05-1.56,13.66-13.73,22.29-16.95,24.57-11.27,7.99-22.86,8.55-32,9-10.36,.51-20.1,.98-29-5-10-6.72-15-16-15-16-.82-1.52-2.93-5.69-7-10-2.53-2.68-4.9-4.45-8-5-1.64-.29-3.05-.16-4,0-12.79,1.22-25.59,2.45-38.38,3.67-.28,.03-.57,.06-.85,.08-25.26,2.42-50.52,4.83-75.77,7.25-24.47,2.94-48.94,5.87-73.41,8.81-.34,.04-.69,.08-1.03,.12-.19,.03-.37,.05-.56,.07-1.14,.25-2.87,.62-5,1-3.66,.65-4.03,.55-5,1-.53,.24-2.36,1.17-5,6-1.47,2.68-2.15,4.68-3,7,0,0-1.34,3.66-4,10-3.28,7.84-9.55,12.99-12,15-7.51,6.16-14.94,8-23,10-6.11,1.51-13.94,3.37-24,2-4.51-.62-10-1.37-16-5-7.68-4.66-11.79-11.39-14-15-1.93-3.16-3.19-5.97-3.98-7.96-.01-.01-.01-.03-.02-.04,4.43,.2,11.02,.36,19,0,18.97-.86,27.04-3.82,30-5,6.77-2.7,12.5-5.08,15-11,.56-1.33,.89-2.66,1.06-3.95h0c.59-4.57-.84-8.48-1.06-9.05-1.7-4.46-4.74-6.98-6-8-3.03-2.45-5.96-3.38-8-4-4.73-1.44-8.99-1.37-12-1-1.88-.09-4.65-.16-8,0-6.19,.29-10.51,1.17-15,2-4.45,.82-10.88,1.92-19,3,.04-.67,.11-1.5,.25-2.44,0-.05,.01-.09,.02-.14,.15-1.02,.38-2.18,.73-3.42,3.44-12.2,14.31-18.45,17-20,7.78-4.47,14.85-5.07,26-6,3.7-.31,9.02-.73,16,0,6.93,.72,14.36,1.5,22,6,5.79,3.41,8.68,5.12,11,8,.75,.93,2.62,3.44,6,5,0,0,1.41,.65,3,1,1.12,.24,5.38-.08,11.63-.77,.33-.04,.67-.08,1.01-.12,27.53-3.12,90.13-12.83,98.36-14.11q.08-.02,43.56-3.12c.4-.02,.8-.05,1.21-.08,11.2-.8,25.2-1.8,42.72-3.06,.94-.06,1.89-.13,2.85-.2,1.4-.1,2.83-.2,4.27-.3,1.13-.08,2.26-.16,3.39-.24,.23,.02,.58,.03,1,0,5.42-.43,8.85-7.81,10-10,5.05-9.64,16.24-15.17,24-19,11.28-5.57,21.48-5.78,32-6,9.39-.19,16.59-.25,24,4,2.3,1.32,8.27,4.85,12,12,1.03,1.97,1.63,3.73,2,5-2.31,.22-5.79,.56-10,1-17.97,1.9-26.33,3.31-35,6-3.82,1.18-8.59,2.89-13,7-1.93,1.8-4,3.77-5,7-.71,2.3-.66,4.55-.24,6.56,.7,3.49,2.49,6.27,3.24,7.44,4.05,6.31,10.22,8.42,12,9,2.67,.87,5.16,1.13,10,1,10.33-.28,18.11-1.99,33-5,4.47-.9,8.04-1.61,10-2,.12,1.21,.2,2.95,0,5Z"/>
      </g>
      <g>
        <path class="cls-6" d="M257,107.59l-7.5-8.36c2.33,2.14,5.65,5.46,9,10,7.56,10.24,10.01,19.72,13,30,1.37,4.71,2.32,9.4,2,15-.18,3.2-.33,5.55-1.5,8.5-3.98,10.07-14.39,13.49-16,14-9.92,3.14-19-.82-24-3-1.7-.74-3.06-1.47-4-2-1,1.07-2.65,2.64-5,4-7.9,4.57-16.37,2.61-19,2-2.48-.58-6.59-1.86-11-5-.38,.79-1.01,1.88-2,3-3.45,3.9-8.3,4.61-11,5-10.94,1.6-22.19-5.78-24-7-1.18,.39-2.89,.85-5,1,0,0-1.47,.11-3,0-2.17-.15-9.38-1.64-16-7-8.79-7.12-12.28-17.62-14-23-2.3-7.18-6.95-21.72-1-38,5.11-13.99,15.46-22.19,19-25,4.94-3.92,11.59-7.77,12-8,4.67-2.68,8.46-4.4,12-6,3.94-1.78,8.8-3.96,15-6,7.24-2.38,14.33-4.71,24-5,6.66-.2,13.21-.4,18,2,.73,.37,2.89,1.53,6,2,2.52,.38,4.04,.06,6,0,3.71-.11,6.45,.81,10,2,7.07,2.37,11.74,6.32,16,10,4.39,3.79,4.16,4.46,9,9,6.86,6.42,14,11,14,11l24.45,11.61-44.75,3.11"/>
        <path class="cls-8" d="M298,101.74c-3.65-1.79-3.76-1.97-6-3-3.09-1.42-3.72-1.47-7-3,0,0-2.06-.97-4-2,0,0-7.92-4.23-16.66-12.36-.22-.2-.68-.66-1.21-1.18-.53-.52-1.13-1.1-1.59-1.58-.64-.67-1.14-1.23-1.62-1.76-1.2-1.32-2.23-2.46-4.59-4.5-3.95-3.4-8.87-7.64-16.17-10.09-3.56-1.2-6.38-2.14-10.17-2.03-.56,.02-1.07,.05-1.59,.09-1.31,.09-2.56,.18-4.33-.08-2.84-.43-4.85-1.45-5.7-1.88l-.15-.08c-4.9-2.45-11.38-2.26-18.24-2.05-9.74,.3-16.73,2.59-24.14,5.02-6.22,2.05-11.11,4.25-15.05,6.02-3.4,1.54-7.25,3.27-12.04,6.03-.28,.16-7.02,4.04-12.06,8.04-3.46,2.74-14,11.1-19.16,25.22-2.38,6.52-3.07,12.78-2.9,18.4,.02,.85,.07,1.68,.14,2.49,.56,7.44,2.52,13.57,3.75,17.43,.46,1.43,1.11,3.46,2.04,5.78,.91,2.28,2.09,4.85,3.65,7.45,2.08,3.51,4.83,7.06,8.48,10.01,6.37,5.16,13.43,6.91,16.27,7.11,1.55,.11,3.02,0,3.08,0,1.65-.12,3.29-.44,4.88-.95,2.96,1.96,11.7,7.18,20.89,7.18,1.09,0,2.18-.08,3.27-.24,2.69-.39,7.72-1.12,11.29-5.16,.7-.78,1.31-1.65,1.81-2.59,3.32,2.27,6.91,3.87,10.71,4.75,2.79,.64,11.29,2.61,19.36-2.06,1.77-1.02,3.4-2.3,4.85-3.8,1.19,.66,2.44,1.28,3.7,1.83,4.98,2.17,14.25,6.22,24.35,3.02,2.86-.91,12.49-4.62,16.31-14.3,1.22-3.07,1.36-5.53,1.54-8.65,.26-4.67-.37-8.72-1.22-12.21-.26-1.04-.53-2.02-.8-2.96l-.51-1.78c-.28-.98-.56-1.95-.85-2.91-2.41-8.19-5.05-16.08-10.96-24.42-.25-.35-.5-.7-.76-1.05-.23-.31-.46-.62-.7-.93l-.43-.47-.07-.08-7.86-8.59c-.24,.24-.48,.47-.71,.7,2.47,2.69,4.95,5.37,7.43,8.05,.15,.16,.29,.32,.44,.48,.37,.47,.74,.95,1.1,1.44,.13,.18,.26,.35,.38,.53,4.37,6.04,8.61,14,11.29,24.42,.26,1.01,.51,2.05,.74,3.11l.51,1.78c.26,.88,.51,1.81,.75,2.78,.85,3.44,1.5,7.45,1.23,12.05-.17,3.03-.31,5.42-1.46,8.35-3.67,9.26-12.94,12.83-15.69,13.7-9.74,3.09-18.79-.86-23.65-2.98-1.35-.59-2.68-1.25-3.95-1.98l-.35-.19-.27,.29c-1.44,1.55-3.08,2.87-4.88,3.91-7.73,4.47-15.94,2.57-18.64,1.94-3.84-.89-7.48-2.54-10.82-4.92l-.48-.34-.26,.53c-.51,1.06-1.16,2.03-1.92,2.89-3.34,3.76-8.13,4.46-10.7,4.84-10.19,1.48-20.68-4.93-23.65-6.93l-.2-.13-.24,.08c-1.58,.52-3.22,.85-4.88,.97-.01,0-1.45,.1-2.92,0-2.2-.15-9.31-1.7-15.73-6.89-3.4-2.76-6.01-6.07-8.02-9.36-1.57-2.58-2.77-5.15-3.7-7.44-.97-2.4-1.64-4.49-2.11-5.96-1.22-3.81-3.16-9.89-3.71-17.23-.07-.82-.11-1.66-.13-2.51-.17-5.49,.51-11.6,2.83-17.94,5.06-13.85,15.43-22.08,18.84-24.78,4.98-3.95,11.66-7.79,11.94-7.96,4.74-2.72,8.57-4.45,11.96-5.97,3.9-1.77,8.77-3.96,14.95-5.98,7.33-2.41,14.26-4.69,23.86-4.98,6.73-.21,13.08-.4,17.76,1.95l.14,.07c.82,.41,3,1.52,6.01,1.97,1.87,.29,3.23,.19,4.54,.1,.5-.04,1.01-.07,1.54-.09,3.63-.11,6.37,.81,9.83,1.97,7.12,2.39,11.75,6.39,15.83,9.91,2.32,2,3.33,3.12,4.51,4.42,.48,.53,1,1.1,1.64,1.78,0,0,1.11,1.18,2.84,2.78,2.56,2.39,4.75,4.29,6.34,5.64,2.29,1.94,3.46,2.93,5,4,2.69,1.87,4.93,2.98,7,4,3.52,1.73,4.52,1.86,9,4,1.72,.82,3.11,1.53,4,2l4,2,1.49,.74c.94-.06,1.89-.13,2.85-.2-1.22-.56-3.08-1.44-5.34-2.54Z"/>
      </g>
      <path class="cls-8" d="M217.39,68.05l-.78-.63c1.21-1.5,2.58-2.88,4.08-4.08,2.14-1.72,4.54-3.09,7.13-4.08l.36,.93c-2.49,.95-4.8,2.27-6.87,3.92-1.44,1.16-2.76,2.48-3.92,3.92Z"/>
      <path class="cls-8" d="M175.43,88l-.85-.52c1.59-2.61,3.67-4.69,6.17-6.17,5.61-3.32,11.42-2.37,13.34-2.06,2.89,.47,5.64,1.5,8.18,3.07l-.53,.85c-2.42-1.5-5.06-2.48-7.82-2.93-2.01-.33-7.37-1.2-12.66,1.94-2.37,1.4-4.33,3.36-5.83,5.83Z"/>
      <path class="cls-8" d="M227.69,172.13c-6.73-5.33-12.15-11.77-16.13-19.15-4.58-8.5-5.95-16.07-7.05-22.15-1.66-9.18-2-18.65-1-28.14l.99,.1c-.99,9.4-.65,18.77,1,27.86,1.09,6.01,2.44,13.49,6.95,21.85,3.91,7.26,9.25,13.6,15.87,18.85l-.62,.78Z"/>
      <path class="cls-8" d="M192.69,173.13c-4.54-3.58-8.61-7.65-12.08-12.08-11.71-14.94-14.17-30.41-15.1-36.23-.74-4.63-1.08-9.37-1.01-14.09h1c-.07,4.68,.27,9.36,.99,13.93,.92,5.75,3.35,21.03,14.9,35.77,3.43,4.38,7.44,8.38,11.92,11.92l-.62,.79Z"/>
      <path class="cls-8" d="M155.7,174.13c-7.31-5.6-13.4-12.37-18.12-20.14-6.23-10.26-8.42-19.62-9.06-23.17-.85-4.63-1.19-9.37-1.01-14.11l1,.04c-.17,4.66,.16,9.34,.99,13.89,.64,3.49,2.79,12.71,8.94,22.83,4.66,7.66,10.67,14.34,17.88,19.86l-.61,.79Z"/>
      <path class="cls-8" d="M138.39,96.05l-.79-.62c1.7-2.17,3.78-3.89,6.16-5.13,1.44-.75,4.81-2.5,9.28-2.05,2.18,.22,4.27,.92,6.21,2.07l-.51,.86c-1.81-1.08-3.76-1.73-5.79-1.93-4.18-.42-7.36,1.24-8.72,1.95-2.26,1.18-4.22,2.81-5.84,4.87Z"/>
      <path class="cls-5" d="M261,97.74c-.44-.37-1.11-.82-2-1-3.04-.61-5.63,2.54-6,3-1.92,2.34-2.01,5.03-2,6,.03,1.82,.28,17.35,1,26,.08,.95,.24,2.76,1,5,1.26,3.72,3.4,6.36,5,8"/>
    </g>
  </g>
</svg>